<svg width="274" height="568" viewBox="0 0 274 568" fill="none" xmlns="http://www.w3.org/2000/svg">
<g clip-path="url(#clip0_1_15)">
<path d="M264 -8.24683H10C4.47715 -8.24683 0 -3.63154 0 2.0617V566.969C0 572.662 4.47715 577.278 10 577.278H264C269.523 577.278 274 572.662 274 566.969V2.0617C274 -3.63154 269.523 -8.24683 264 -8.24683Z" fill="#483EFF"/>
<mask id="mask0_1_15" style="mask-type:alpha" maskUnits="userSpaceOnUse" x="0" y="-9" width="274" height="587">
<path d="M264 -8.24683H10C4.47715 -8.24683 0 -3.63154 0 2.0617V566.969C0 572.662 4.47715 577.278 10 577.278H264C269.523 577.278 274 572.662 274 566.969V2.0617C274 -3.63154 269.523 -8.24683 264 -8.24683Z" fill="white"/>
</mask>
<g mask="url(#mask0_1_15)">
<path fill-rule="evenodd" clip-rule="evenodd" d="M-34.692 551.61C3.24699 643.807 168.767 697.905 211.96 623.171C255.154 548.438 145.861 534.876 107.225 457.648C68.59 380.421 38.568 332.22 -17.257 349.814C-73.081 367.408 -72.631 459.414 -34.692 551.61Z" fill="#6259FF"/>
<path fill-rule="evenodd" clip-rule="evenodd" d="M233.095 611.454C293.774 582.303 325.934 463.499 274.97 434.633C224.005 405.766 217.573 483.68 166.911 512.965C116.249 542.249 84.771 564.721 97.867 603.928C110.963 643.136 172.416 640.604 233.095 611.454Z" fill="#F9818E"/>
<path d="M165.305 475.323L175.912 464.184M209.461 480.976L196.955 470.149M187.56 495.831L180.652 511.086" stroke="white" stroke-width="5" stroke-linecap="round" stroke-linejoin="bevel"/>
<path d="M0.304993 555.517C37.308 555.517 67.305 524.595 67.305 486.45C67.305 448.306 37.308 417.383 0.304993 417.383C-36.698 417.383 -66.695 448.306 -66.695 486.45C-66.695 524.595 -36.698 555.517 0.304993 555.517Z" fill="#FFAF7E"/>
</g>
</g>
<defs>
<clipPath id="clip0_1_15">
<rect width="274" height="568" fill="white"/>
</clipPath>
</defs>
</svg>
